<?xml version="1.0" encoding="utf-8"?>
<!-- Generator: Adobe Illustrator 26.0.2, SVG Export Plug-In . SVG Version: 6.00 Build 0)  -->
<svg version="1.1" id="Layer_1" xmlns="http://www.w3.org/2000/svg" xmlns:xlink="http://www.w3.org/1999/xlink" x="0px" y="0px"
	 viewBox="0 0 611 611" style="enable-background:new 0 0 611 611;" xml:space="preserve">
<style type="text/css">
	.st0{fill:none;stroke:#FFFFFF;stroke-width:40;stroke-miterlimit:10;}
	.st1{enable-background:new    ;}
	.st2{fill:#FFFFFF;}
</style>
<circle class="st0" cx="305.5" cy="305.5" r="285.5"/>
<g class="st1">
	<path class="st2" d="M149.3,366.6v23.8h-28l-23.5-23.5V210.4h28v147.2l9,9H149.3z"/>
</g>
<g class="st1">
	<path class="st2" d="M284.7,325.1v38.8l-26.5,26.5h-73.8l-27.5-27.5l19.5-19.5l21.2,21.2h46.8l11.5-11.2v-20l-15.8-15.8h-49.2
		v-25.8h47.8l13.5-13.5v-21l-11.5-11.2h-41.8l-18.8,18.8l-19.5-19.5l25-25h68.8l26.5,26.5v38.8l-17.8,17.8L284.7,325.1z"/>
</g>
<g class="st1">
	<path class="st2" d="M427,325.1v38.8l-26.5,26.5h-73.8l-27.5-27.5l19.5-19.5l21.2,21.2h46.8l11.5-11.2v-20l-15.8-15.8h-49.2v-25.8
		H381l13.5-13.5v-21L383,246.1h-41.8l-18.8,18.8L303,245.4l25-25h68.8l26.5,26.5v38.8l-17.8,17.8L427,325.1z"/>
</g>
<g class="st1">
	<path class="st2" d="M492.7,290.9v64.2l11.8,11.5h26v23.8h-41l-24.8-24.5v-75h-29v-23.5h30.5l4.8-47h21.8v47h37.8v23.5H492.7z"/>
</g>
</svg>
