<?xml version="1.0" encoding="utf-8"?>
<!-- Generator: Adobe Illustrator 26.0.2, SVG Export Plug-In . SVG Version: 6.00 Build 0)  -->
<svg version="1.1" id="Layer_1" xmlns="http://www.w3.org/2000/svg" xmlns:xlink="http://www.w3.org/1999/xlink" x="0px" y="0px"
	 viewBox="0 0 611 611" style="enable-background:new 0 0 611 611;" xml:space="preserve">
<style type="text/css">
	.st0{fill:none;stroke:#FFFFFF;stroke-width:40;stroke-miterlimit:10;}
	.st1{enable-background:new    ;}
	.st2{fill:#FFFFFF;}
</style>
<circle class="st0" cx="305.5" cy="305.5" r="285.5"/>
<g class="st1">
	<path class="st2" d="M261.1,367.8H130.8l-25,65.6H53.6L171.8,140h50.5l118.7,293.4h-54.8L261.1,367.8z M243.4,322.5L196,198.2
		l-47.5,124.3H243.4z"/>
</g>
<g class="st1">
	<path class="st2" d="M541.3,259v174.3h-43.1l-1.3-38.4l-38.4,38.4h-74.2l-35.8-35.8v-53.1l31.9-31.9l112.6-7.8v-28.5l-16.4-16.4
		H411l-27.6,27.6l-30.2-30.6l35.8-35.8h114.3L541.3,259z M493,358.7v-16.4l-85.4,5.6l-10.8,11.2v22l12.9,13.4h47.9L493,358.7z"/>
</g>
</svg>
