<svg id="Layer_1" data-name="Layer 1" xmlns="http://www.w3.org/2000/svg" viewBox="0 0 611 611"><defs><style>.cls-1{fill:none;stroke:#fff;stroke-miterlimit:10;stroke-width:40px;}.cls-2{fill:#fff;}</style></defs><circle class="cls-1" cx="305.5" cy="305.5" r="285.5"/><path class="cls-2" d="M298.39,88c6.63,1,13.35,1.71,19.89,3.16,67.45,15,111.26,55.7,131.64,121.6,4,12.82,5.63,26.11,6,39.54A29.54,29.54,0,0,0,457.2,260q12.54,41.29,25.28,82.54c1.75,5.64,1.64,10.87-1.77,15.77A15.93,15.93,0,0,1,467,365.44c-9.37,0-18.73,0-28.71,0,0,1.84,0,3.42,0,5-.21,13.37.53,26.84-.84,40.08-2.82,27-26.67,48-53.85,48.41-15.31.22-30.62.13-45.93,0-2.93,0-4.31.69-5.13,3.73-3.63,13.42-7.67,26.73-11.32,40.15-1.06,3.92-2.8,7.05-6.26,9.18h-5c-6-3.73-6.91-6.19-5-13.08,3.74-13.11,7.5-26.21,11.28-39.41-6.27-1-12.4-1.68-18.36-3a87.43,87.43,0,0,1-41.9-23c-4.29-4.15-4.42-9.65-.48-13,3.59-3.08,7.91-2.71,12.17,1.32,9.62,9.11,20.72,15.61,33.68,18.45a87.72,87.72,0,0,0,17.6,2.11c20.7.25,41.4.15,62.1.08,23.31-.08,40.44-17.21,40.58-40.56.09-14.36,0-28.71,0-43.06,0-6.85,3-9.88,9.82-9.9,11.58,0,23.16,0,35.22,0-.32-1.42-.5-2.57-.84-3.67-8.18-26.74-16.67-53.39-24.37-80.27-2.21-7.69-2-16-3.1-24.07-7.41-54.93-35.67-95.79-85.11-120.34-48.06-23.88-96.44-21.25-143.58,4.31-.61.33-1.18.71-1.79,1-4.74,2.47-9.57,1.35-11.91-2.75s-1-8.86,3.66-11.61c12.27-7.27,25.19-13.24,39-16.69,10.79-2.69,21.9-4.14,32.86-6.15.93-.17,1.84-.45,2.76-.68Z" transform="translate(5 5)"/><path class="cls-2" d="M142.7,512c-5.88-3.69-6.74-5.82-5.12-12.68,4.78-20.38,10.22-40.64,14.17-61.18,5.51-28.62,1.18-56.32-11.42-82.54-10.89-22.65-18.66-46.2-22.07-71.13-5.73-41.81,1.73-80.92,24-117,2.25-3.66,5.18-5.72,9.56-4.9,3.47.65,6,3,6.19,6.33a15,15,0,0,1-2.21,8A156.22,156.22,0,0,0,136.91,223c-7.65,33.26-3.72,65.75,6.88,97.72a146.33,146.33,0,0,0,8.3,20.68c19.48,38.09,23.3,77.61,12,118.82-3.85,14.07-7.09,28.32-10.32,42.56-.92,4-2.7,7.06-6.12,9.22Z" transform="translate(5 5)"/><path class="cls-2" d="M376.6,257.62c-1.18-7.47-2.41-14.93-3.52-22.41-.34-2.28-1.23-3.1-3.72-3.19-5.74-.21-9-5.15-7.44-10.74,1-3.57,2.2-7.11,3.47-10.6,2.22-6,7.42-8,12.91-4.73q4.63,2.73,9.06,5.8c4.6,3.19,5.16,8,2.08,12.61a7,7,0,0,0-.64,5.08,108,108,0,0,1-69.09,130.13c-64,22.14-133-20.75-141.54-88a107.64,107.64,0,0,1,91.28-120.41,106.09,106.09,0,0,1,57.15,7.33c6.22,2.62,8.56,6.91,6.5,11.77s-6.68,6.08-13,3.46a91.15,91.15,0,0,0-123.14,60.15c-14.81,53.54,22.65,108.49,77.93,114.32a91.09,91.09,0,0,0,100.34-78.9c.5-3.82.59-7.7.88-11.55Z" transform="translate(5 5)"/><path class="cls-2" d="M353.29,257.63a68.47,68.47,0,1,1-68.43-68.49A68.6,68.6,0,0,1,353.29,257.63Zm-16.56.07a51.91,51.91,0,1,0-51.78,52A52.06,52.06,0,0,0,336.73,257.7Z" transform="translate(5 5)"/><path class="cls-2" d="M181.79,141.58a8.2,8.2,0,0,1-7.91,8.43,8.46,8.46,0,0,1-8.51-8.35,8.31,8.31,0,0,1,8.23-8.15A8.05,8.05,0,0,1,181.79,141.58Z" transform="translate(5 5)"/><path class="cls-2" d="M293.19,249.49c2.63,0,4.69-.13,6.72,0a8,8,0,0,1,7.67,7.75c.21,4.44-2.7,8.29-7.19,8.58a128.73,128.73,0,0,1-16.55,0c-4.43-.28-7.12-3.73-7.17-8.62q-.15-14.28,0-28.57c.05-5.17,3.36-8.68,7.95-8.82s8.32,3.46,8.51,8.79.05,10.49.06,15.74Z" transform="translate(5 5)"/></svg>