<?xml version="1.0" encoding="utf-8"?>
<!-- Generator: Adobe Illustrator 26.0.2, SVG Export Plug-In . SVG Version: 6.00 Build 0)  -->
<svg version="1.1" id="Layer_1" xmlns="http://www.w3.org/2000/svg" xmlns:xlink="http://www.w3.org/1999/xlink" x="0px" y="0px"
	 viewBox="0 0 611 611" style="enable-background:new 0 0 611 611;" xml:space="preserve">
<style type="text/css">
	.st0{fill:none;stroke:#FFFFFF;stroke-width:40;stroke-miterlimit:10;}
	.st1{enable-background:new    ;}
	.st2{fill:#FFFFFF;}
</style>
<circle class="st0" cx="305.5" cy="305.5" r="285.5"/>
<g class="st1">
	<path class="st2" d="M181.6,236.6v40.5l-18.8,18.8l-29.2,6.5l-6,5.8v13.8h-28v-23l16.2-16.2l29.5-6.2l8.2-8.2v-22.2l-12.8-12.8
		H98.1l-21,21l-18.8-18.5l26.2-26.2h69.8L181.6,236.6z M97.9,347.6h31.8v31.8H97.9V347.6z"/>
</g>
<g class="st1">
	<path class="st2" d="M195.8,209.4h32.8L223,321.9h-22L195.8,209.4z M196.3,347.6H228v31.8h-31.8V347.6z"/>
</g>
<g class="st1">
	<path class="st2" d="M402,242.6v108h-24.2l-0.8-22.2l-22.5,22.2h-35.8L298,329.9v-40.2l18.5-18.8l58.5-3.8v-15l-18.2-18.2h-59.2
		L273,258.4v99l24.5,24.5h80v24.5h-92L246,366.9v-118l39.5-39.5h83.2L402,242.6z M375,305.9v-15l-43.8,2.8l-6.2,6.2v20l7,7.2h22
		L375,305.9z"/>
</g>
<g class="st1">
	<path class="st2" d="M530.1,271.9l-8,45h27.5l-3.5,19.8h-27.2l-7.5,42.8h-20.8l7.5-42.8h-36.8l-7.5,42.8h-20.8l7.5-42.8h-27.5
		l3.5-19.8h27.2l8-45h-27.5l3.5-19.8h27.2l7.5-42.8h20.8l-7.5,42.8h36.8l7.5-42.8h20.8l-7.5,42.8h27.5l-3.5,19.8H530.1z
		 M509.3,271.9h-36.8l-8,45h36.8L509.3,271.9z"/>
</g>
</svg>
