<?xml version="1.0" encoding="utf-8"?>
<!-- Generator: Adobe Illustrator 26.0.2, SVG Export Plug-In . SVG Version: 6.00 Build 0)  -->
<svg version="1.1" id="Layer_1" xmlns="http://www.w3.org/2000/svg" xmlns:xlink="http://www.w3.org/1999/xlink" x="0px" y="0px"
	 viewBox="0 0 611 611" style="enable-background:new 0 0 611 611;" xml:space="preserve">
<style type="text/css">
	.st0{fill:none;stroke:#FFFFFF;stroke-width:40;stroke-miterlimit:10;}
	.st1{enable-background:new    ;}
	.st2{fill:#FFFFFF;}
</style>
<circle class="st0" cx="305.5" cy="305.5" r="285.5"/>
<g class="st1">
	<path class="st2" d="M294.7,271.7v25.9l-175,65.8v-36.8l114.1-42l-114.1-42v-36.8L294.7,271.7z M119.7,384.4h175v34.3h-175V384.4z"
		/>
</g>
<g class="st1">
	<path class="st2" d="M494.5,342v54.3l-37.1,37.1H352.1L315,396.3V342l30.5-30.5l-25.2-24.9v-54.3l37.1-37.1h94.9l37.1,37.1v54.3
		l-24.8,24.9L494.5,342z M454.3,381.6v-28l-22.1-22h-55l-22,22v28l16.1,15.8h66.9L454.3,381.6z M360.5,276.6l18.9,18.9h50.8
		l18.9-18.9v-29.4l-16.1-15.8h-56.4l-16.1,15.8V276.6z"/>
</g>
</svg>
